<?xml version="1.0" encoding="UTF-8"?>
<!DOCTYPE svg PUBLIC "-//W3C//DTD SVG 1.1//EN" "http://www.w3.org/Graphics/SVG/1.1/DTD/svg11.dtd">
<svg xmlns="http://www.w3.org/2000/svg" version="1.1" width="1702px" height="1701px" style="shape-rendering:geometricPrecision; text-rendering:geometricPrecision; image-rendering:optimizeQuality; fill-rule:evenodd; clip-rule:evenodd" xmlns:xlink="http://www.w3.org/1999/xlink">
<g><path style="opacity:0.998" fill="#f4f2f4" d="M 850.5,-0.5 C 850.833,-0.5 851.167,-0.5 851.5,-0.5C 996.94,84.0591 1142.61,168.392 1288.5,252.5C 1289.17,405.5 1289.83,558.5 1290.5,711.5C 1422.42,787.707 1554.25,864.04 1686,940.5C 1686.67,1109.5 1686.67,1278.5 1686,1447.5C 1540.19,1531.99 1394.35,1616.32 1248.5,1700.5C 1247.83,1700.5 1247.17,1700.5 1246.5,1700.5C 1114.65,1624.32 982.814,1547.99 851,1471.5C 718.858,1547.48 587.025,1623.81 455.5,1700.5C 454.5,1700.5 453.5,1700.5 452.5,1700.5C 307.06,1615.94 161.393,1531.61 15.5,1447.5C 14.3333,1278.5 14.1667,1109.5 15,940.5C 147.164,864.419 279.164,788.086 411,711.5C 411.333,558.833 411.667,406.167 412,253.5C 558.077,168.57 704.243,83.9038 850.5,-0.5 Z"/></g>
<g><path style="opacity:1" fill="#042b92" d="M 850.5,48.5 C 850.832,201.57 850.498,354.57 849.5,507.5C 718.167,583.167 586.833,658.833 455.5,734.5C 454.5,582.334 454.167,430.001 454.5,277.5C 586.138,200.677 718.138,124.343 850.5,48.5 Z"/></g>
<g><path style="opacity:1" fill="#1488db" d="M 852.5,49.5 C 983.799,125.111 1115.13,200.778 1246.5,276.5C 1247.5,429.499 1247.83,582.499 1247.5,735.5C 1116.97,660.404 986.634,585.071 856.5,509.5C 855.816,507.815 854.483,506.815 852.5,506.5C 851.167,354.001 851.167,201.667 852.5,49.5 Z"/></g>
<g><path style="opacity:1" fill="#2f8ad5" d="M 852.5,49.5 C 851.167,201.667 851.167,354.001 852.5,506.5C 854.483,506.815 855.816,507.815 856.5,509.5C 854.254,508.545 851.921,507.878 849.5,507.5C 850.498,354.57 850.832,201.57 850.5,48.5C 851.327,47.5613 851.994,47.8946 852.5,49.5 Z"/></g>
<g><path style="opacity:1" fill="#3f5daa" d="M 454.5,277.5 C 454.167,430.001 454.5,582.334 455.5,734.5C 455.5,735.167 455.167,735.5 454.5,735.5C 454.167,735.5 453.833,735.5 453.5,735.5C 453.167,582.666 453.5,429.999 454.5,277.5 Z"/></g>
<g><path style="opacity:1" fill="#fefefe" d="M 849.5,507.5 C 851.921,507.878 854.254,508.545 856.5,509.5C 986.634,585.071 1116.97,660.404 1247.5,735.5C 1247.5,888.167 1247.5,1040.83 1247.5,1193.5C 1115.3,1270.1 982.969,1346.43 850.5,1422.5C 718.473,1346.49 586.473,1270.49 454.5,1194.5C 454.5,1194.17 454.5,1193.83 454.5,1193.5C 454.5,1040.83 454.5,888.167 454.5,735.5C 455.167,735.5 455.5,735.167 455.5,734.5C 586.833,658.833 718.167,583.167 849.5,507.5 Z"/></g>
<g><path style="opacity:1" fill="#042b92" d="M 587.5,730.5 C 633.501,730.333 679.501,730.5 725.5,731C 750.535,729.168 772.868,735.835 792.5,751C 816.551,774.381 822.718,801.881 811,833.5C 803.803,849.197 792.636,861.197 777.5,869.5C 821.054,886.593 837.887,918.26 828,964.5C 818.064,999.882 794.898,1020.05 758.5,1025C 741.191,1026.28 723.858,1026.78 706.5,1026.5C 666.833,1026.5 627.167,1026.5 587.5,1026.5C 587.5,927.833 587.5,829.167 587.5,730.5 Z"/></g>
<g><path style="opacity:1" fill="#052b92" d="M 940.5,937.5 C 939.502,966.995 939.169,996.662 939.5,1026.5C 920.167,1026.5 900.833,1026.5 881.5,1026.5C 881.5,927.833 881.5,829.167 881.5,730.5C 901.167,730.5 920.833,730.5 940.5,730.5C 940.333,774.168 940.5,817.835 941,861.5C 979.797,817.702 1018.96,774.202 1058.5,731C 1085.17,730.333 1111.83,730.333 1138.5,731C 1101.22,768.773 1064.89,807.273 1029.5,846.5C 1067.21,907.044 1105.54,967.211 1144.5,1027C 1118.83,1027.83 1093.16,1027.67 1067.5,1026.5C 1041.23,980.241 1014.57,934.241 987.5,888.5C 972.176,905.157 956.51,921.491 940.5,937.5 Z"/></g>
<g><path style="opacity:1" fill="#415fac" d="M 587.5,730.5 C 587.5,829.167 587.5,927.833 587.5,1026.5C 627.167,1026.5 666.833,1026.5 706.5,1026.5C 666.67,1027.5 626.67,1027.83 586.5,1027.5C 586.167,928.332 586.501,829.332 587.5,730.5 Z"/></g>
<g><path style="opacity:1" fill="#042b92" d="M 1247.5,735.5 C 1379.88,811.443 1512.05,887.776 1644,964.5C 1644.5,1117.17 1644.67,1269.83 1644.5,1422.5C 1512,1346.42 1379.67,1270.09 1247.5,1193.5C 1247.5,1040.83 1247.5,888.167 1247.5,735.5 Z"/></g>
<g><path style="opacity:1" fill="#1588db" d="M 452.5,736.5 C 453.167,888.833 453.833,1041.17 454.5,1193.5C 454.5,1193.83 454.5,1194.17 454.5,1194.5C 446.439,1198.37 438.439,1202.53 430.5,1207C 305.776,1278.69 181.443,1350.86 57.5,1423.5C 56.3339,1270.67 56.1672,1117.67 57,964.5C 188.779,888.362 320.612,812.362 452.5,736.5 Z"/></g>
<g><path style="opacity:1" fill="#86c1eb" d="M 452.5,736.5 C 452.5,735.833 452.833,735.5 453.5,735.5C 453.833,735.5 454.167,735.5 454.5,735.5C 454.5,888.167 454.5,1040.83 454.5,1193.5C 453.833,1041.17 453.167,888.833 452.5,736.5 Z"/></g>
<g><path style="opacity:1" fill="#fdfdfe" d="M 645.5,780.5 C 673.502,780.333 701.502,780.5 729.5,781C 748.708,783.373 758.708,794.207 759.5,813.5C 757.189,836.187 744.523,847.687 721.5,848C 696.169,848.5 670.836,848.667 645.5,848.5C 645.5,825.833 645.5,803.167 645.5,780.5 Z"/></g>
<g><path style="opacity:1" fill="#fefefe" d="M 712.5,898.5 C 726.763,897.99 740.43,900.49 753.5,906C 767.724,916.661 772.891,930.828 769,948.5C 765.527,962.64 756.693,971.473 742.5,975C 735.221,976.247 727.888,976.747 720.5,976.5C 695.833,976.5 671.167,976.5 646.5,976.5C 646.5,950.5 646.5,924.5 646.5,898.5C 668.5,898.5 690.5,898.5 712.5,898.5 Z"/></g>
<g><path style="opacity:1" fill="#9fadd4" d="M 712.5,898.5 C 690.5,898.5 668.5,898.5 646.5,898.5C 646.5,924.5 646.5,950.5 646.5,976.5C 671.167,976.5 695.833,976.5 720.5,976.5C 695.672,977.498 670.672,977.831 645.5,977.5C 645.5,950.833 645.5,924.167 645.5,897.5C 668.006,897.169 690.34,897.503 712.5,898.5 Z"/></g>
<g><path style="opacity:1" fill="#415fab" d="M 940.5,937.5 C 940.5,967.5 940.5,997.5 940.5,1027.5C 920.66,1027.83 900.993,1027.5 881.5,1026.5C 900.833,1026.5 920.167,1026.5 939.5,1026.5C 939.169,996.662 939.502,966.995 940.5,937.5 Z"/></g>
<g><path style="opacity:1" fill="#1989db" d="M 947.5,1077.5 C 959.845,1076.49 971.845,1077.99 983.5,1082C 993.992,1088 1000.99,1096.83 1004.5,1108.5C 1004.17,1109.17 1003.83,1109.83 1003.5,1110.5C 996.166,1112.17 988.832,1113.83 981.5,1115.5C 979.846,1105.68 974.179,1099.51 964.5,1097C 947.63,1095.02 936.796,1102.19 932,1118.5C 928.918,1134.08 930.585,1149.08 937,1163.5C 946.755,1174.32 958.255,1176.48 971.5,1170C 973.333,1168.17 975.167,1166.33 977,1164.5C 979.154,1159.68 981.487,1155.01 984,1150.5C 990.716,1152.94 997.549,1154.94 1004.5,1156.5C 1000.86,1176.31 989.189,1188.48 969.5,1193C 935.687,1197.03 915.187,1182.53 908,1149.5C 902.861,1124.25 909.694,1103.09 928.5,1086C 934.453,1082.08 940.786,1079.25 947.5,1077.5 Z"/></g>
<g><path style="opacity:1" fill="#89c2ed" d="M 654.5,1079.5 C 624.833,1079.5 595.167,1079.5 565.5,1079.5C 565.5,1085.83 565.5,1092.17 565.5,1098.5C 564.509,1092.02 564.176,1085.35 564.5,1078.5C 594.671,1078.17 624.671,1078.5 654.5,1079.5 Z"/></g>
<g><path style="opacity:1" fill="#1889db" d="M 654.5,1079.5 C 654.5,1085.83 654.5,1092.17 654.5,1098.5C 643.5,1098.5 632.5,1098.5 621.5,1098.5C 621.5,1129.5 621.5,1160.5 621.5,1191.5C 613.833,1191.5 606.167,1191.5 598.5,1191.5C 598.5,1160.5 598.5,1129.5 598.5,1098.5C 587.5,1098.5 576.5,1098.5 565.5,1098.5C 565.5,1092.17 565.5,1085.83 565.5,1079.5C 595.167,1079.5 624.833,1079.5 654.5,1079.5 Z"/></g>
<g><path style="opacity:1" fill="#8ac3ed" d="M 721.5,1079.5 C 704.167,1079.5 686.833,1079.5 669.5,1079.5C 669.5,1116.83 669.5,1154.17 669.5,1191.5C 668.502,1154 668.168,1116.34 668.5,1078.5C 686.341,1078.17 704.008,1078.5 721.5,1079.5 Z"/></g>
<g><path style="opacity:1" fill="#1b89db" d="M 721.5,1079.5 C 739.548,1079.39 750.714,1088.05 755,1105.5C 758.101,1131.18 746.934,1145.68 721.5,1149C 711.839,1149.5 702.172,1149.67 692.5,1149.5C 692.5,1163.5 692.5,1177.5 692.5,1191.5C 684.833,1191.5 677.167,1191.5 669.5,1191.5C 669.5,1154.17 669.5,1116.83 669.5,1079.5C 686.833,1079.5 704.167,1079.5 721.5,1079.5 Z"/></g>
<g><path style="opacity:1" fill="#1688db" d="M 864.5,1123.5 C 865.496,1109.01 865.829,1094.34 865.5,1079.5C 872.833,1079.5 880.167,1079.5 887.5,1079.5C 887.5,1116.83 887.5,1154.17 887.5,1191.5C 879.833,1191.5 872.167,1191.5 864.5,1191.5C 864.5,1175.17 864.5,1158.83 864.5,1142.5C 849.833,1142.5 835.167,1142.5 820.5,1142.5C 820.5,1158.83 820.5,1175.17 820.5,1191.5C 812.833,1191.5 805.167,1191.5 797.5,1191.5C 797.5,1153.83 797.5,1116.17 797.5,1078.5C 805.167,1078.5 812.833,1078.5 820.5,1078.5C 820.5,1093.5 820.5,1108.5 820.5,1123.5C 835.167,1123.5 849.833,1123.5 864.5,1123.5 Z"/></g>
<g><path style="opacity:1" fill="#5eace6" d="M 887.5,1079.5 C 880.167,1079.5 872.833,1079.5 865.5,1079.5C 865.829,1094.34 865.496,1109.01 864.5,1123.5C 864.5,1108.5 864.5,1093.5 864.5,1078.5C 872.352,1078.17 880.018,1078.51 887.5,1079.5 Z"/></g>
<g><path style="opacity:1" fill="#badbf5" d="M 1058.5,1079.5 C 1047.17,1079.5 1035.83,1079.5 1024.5,1079.5C 1024.5,1116.83 1024.5,1154.17 1024.5,1191.5C 1023.5,1154 1023.17,1116.34 1023.5,1078.5C 1035.35,1078.17 1047.01,1078.51 1058.5,1079.5 Z"/></g>
<g><path style="opacity:1" fill="#1c89db" d="M 1112.5,1191.5 C 1112.67,1162.5 1112.5,1133.5 1112,1104.5C 1110.96,1105.24 1110.46,1106.24 1110.5,1107.5C 1104.29,1134.99 1097.46,1162.33 1090,1189.5C 1086.43,1190.79 1082.6,1191.46 1078.5,1191.5C 1074.58,1191.48 1070.75,1191.15 1067,1190.5C 1060.16,1162.13 1053.16,1133.8 1046,1105.5C 1045.5,1134.16 1045.33,1162.83 1045.5,1191.5C 1038.5,1191.5 1031.5,1191.5 1024.5,1191.5C 1024.5,1154.17 1024.5,1116.83 1024.5,1079.5C 1035.83,1079.5 1047.17,1079.5 1058.5,1079.5C 1065.22,1104.17 1072.06,1128.84 1079,1153.5C 1085.69,1128.55 1092.19,1103.55 1098.5,1078.5C 1110.08,1078.18 1121.58,1078.51 1133,1079.5C 1133.5,1116.83 1133.67,1154.17 1133.5,1191.5C 1126.5,1191.5 1119.5,1191.5 1112.5,1191.5 Z"/></g>
<g><path style="opacity:1" fill="#fdfefe" d="M 692.5,1098.5 C 702.58,1098.08 712.58,1098.58 722.5,1100C 731.904,1105.61 734.07,1113.44 729,1123.5C 727.269,1125.62 725.102,1127.12 722.5,1128C 712.566,1129.4 702.566,1129.9 692.5,1129.5C 692.5,1119.17 692.5,1108.83 692.5,1098.5 Z"/></g>
<g><path style="opacity:1" fill="#4da5e4" d="M 1112.5,1191.5 C 1111.83,1163.5 1111.17,1135.5 1110.5,1107.5C 1110.46,1106.24 1110.96,1105.24 1112,1104.5C 1112.5,1133.5 1112.67,1162.5 1112.5,1191.5 Z"/></g>
<g><path style="opacity:1" fill="#1488db" d="M 753.5,1170.5 C 760.5,1170.5 767.5,1170.5 774.5,1170.5C 774.5,1177.5 774.5,1184.5 774.5,1191.5C 774.5,1184.5 774.5,1177.5 774.5,1170.5C 767.5,1170.5 760.5,1170.5 753.5,1170.5 Z"/></g>
<g><path style="opacity:1" fill="#64afe7" d="M 753.5,1170.5 C 760.648,1169.51 767.981,1169.18 775.5,1169.5C 775.825,1177.02 775.492,1184.35 774.5,1191.5C 774.5,1184.5 774.5,1177.5 774.5,1170.5C 767.5,1170.5 760.5,1170.5 753.5,1170.5 Z"/></g>
<g><path style="opacity:1" fill="#042b92" d="M 454.5,1194.5 C 586.473,1270.49 718.473,1346.49 850.5,1422.5C 850.5,1422.83 850.5,1423.17 850.5,1423.5C 718.116,1499.44 585.949,1575.78 454,1652.5C 322.051,1575.78 189.884,1499.44 57.5,1423.5C 181.443,1350.86 305.776,1278.69 430.5,1207C 438.439,1202.53 446.439,1198.37 454.5,1194.5 Z"/></g>
<g><path style="opacity:1" fill="#1488db" d="M 1247.5,1193.5 C 1379.67,1270.09 1512,1346.42 1644.5,1422.5C 1512.39,1499.39 1380.06,1576.06 1247.5,1652.5C 1115.28,1575.89 982.942,1499.56 850.5,1423.5C 850.5,1423.17 850.5,1422.83 850.5,1422.5C 982.969,1346.43 1115.3,1270.1 1247.5,1193.5 Z"/></g>
</svg>
